<?xml version="1.0" encoding="utf-8"?>
<!-- Generator: Adobe Illustrator 17.0.0, SVG Export Plug-In . SVG Version: 6.00 Build 0)  -->
<!DOCTYPE svg PUBLIC "-//W3C//DTD SVG 1.1//EN" "http://www.w3.org/Graphics/SVG/1.1/DTD/svg11.dtd">
<svg version="1.1" id="Layer_1" xmlns="http://www.w3.org/2000/svg" xmlns:xlink="http://www.w3.org/1999/xlink" x="0px" y="0px"
	 width="60px" height="60px" viewBox="0 0 60 60" enable-background="new 0 0 60 60" xml:space="preserve">
<g id="Forma_1_copy_2_xA0_Clipping_Path">
	<g>
		<path d="M35.997,1.224C20.105-2.088,4.536,8.111,1.224,24.003C-2.088,39.895,8.11,55.464,24.003,58.776
			c15.892,3.312,31.461-6.885,34.773-22.778C62.088,20.105,51.89,4.537,35.997,1.224z M45.863,42.545
			c-0.51,2.445-2.905,4.013-5.35,3.505c-2.445-0.51-4.014-2.905-3.504-5.35l2.386-11.447L16.429,44.296
			c-2.089,1.369-4.892,0.785-6.261-1.305c-0.684-1.045-0.88-2.268-0.644-3.401c0.236-1.133,0.904-2.176,1.949-2.86l22.966-15.044
			l-11.447-2.386c-2.445-0.51-4.014-2.905-3.504-5.349c0.51-2.445,2.904-4.014,5.349-3.505l26.562,5.536L45.863,42.545z"/>
	</g>
</g>
</svg>
