<?xml version="1.0" encoding="utf-8"?>
<!-- Generator: Adobe Illustrator 17.0.0, SVG Export Plug-In . SVG Version: 6.00 Build 0)  -->
<!DOCTYPE svg PUBLIC "-//W3C//DTD SVG 1.1//EN" "http://www.w3.org/Graphics/SVG/1.1/DTD/svg11.dtd">
<svg version="1.1" id="Capa_1" xmlns="http://www.w3.org/2000/svg" xmlns:xlink="http://www.w3.org/1999/xlink" x="0px" y="0px"
	 width="512px" height="512px" viewBox="0 0 512 512" enable-background="new 0 0 512 512" xml:space="preserve">
<g>
	<g>
		<path fill="#FFFFFF" d="M256,512c-23.552,0-46.251-3.072-68.096-9.216c-21.845-6.147-42.24-14.763-61.184-25.856
			s-36.181-24.405-51.712-39.936c-15.531-15.529-28.843-32.768-39.936-51.712c-11.093-18.946-19.712-39.339-25.856-61.185
			C3.072,302.251,0,279.552,0,256s3.072-46.251,9.216-68.096s14.763-42.24,25.856-61.184s24.405-36.181,39.936-51.712
			s32.768-28.843,51.712-39.936s39.339-19.712,61.184-25.856S232.448,0,256,0c35.157,0,68.352,6.741,99.584,20.224
			s58.368,31.744,81.408,54.784c23.04,23.04,41.301,50.176,54.784,81.408S512,220.843,512,256c0,23.552-3.072,46.251-9.216,68.096
			c-6.147,21.843-14.763,42.237-25.856,61.184c-11.093,18.944-24.405,36.181-39.936,51.712
			c-15.529,15.531-32.768,28.845-51.712,39.936c-18.946,11.093-39.339,19.712-61.186,25.856C302.251,508.928,279.552,512,256,512z
			 M379.392,150.528H136.704c-2.389,0-4.437,0.768-6.144,2.304c-1.707,1.536-2.56,3.669-2.56,6.4v27.136
			c0,1.365,0.512,2.048,1.536,2.048l127.488,72.704l1.026,0.512c0.68,0,1.195-0.171,1.536-0.512l123.392-72.704
			c0.68-0.341,1.195-0.512,1.536-0.512c0.339,0,0.853-0.171,1.536-0.512c1.365,0,2.048-0.683,2.048-2.048v-26.112
			c0-2.731-0.854-4.864-2.563-6.4C383.828,151.296,381.781,150.528,379.392,150.528z M205.312,259.584
			c0.341-0.341,0.512-0.854,0.512-1.536c0-1.026-0.341-1.536-1.024-1.536l-73.216-41.985c-1.024-0.341-1.877-0.341-2.56,0
			c-0.683,0-1.024,0.512-1.024,1.536v110.08c0,1.026,0.512,1.707,1.536,2.048h1.024c0.683,0,1.024-0.171,1.024-0.512
			L205.312,259.584z M294.4,267.776c-0.341-1.027-1.197-1.195-2.563-0.512l-28.16,16.384c-3.413,2.048-6.995,2.048-10.752,0
			l-24.576-13.821c-1.024-0.683-1.877-0.683-2.56,0l-93.696,87.04c-0.341,0.339-0.512,1.024-0.512,2.045
			c0,0.341,0.341,0.854,1.024,1.536c2.048,0.683,3.413,1.026,4.096,1.026H376.83c0.683,0,1.368-0.341,2.048-1.026
			c0-1.365-0.171-2.216-0.512-2.56L294.4,267.776z M386.56,212.48h-2.046l-69.632,41.472c-0.68,0-1.024,0.512-1.024,1.536
			c-0.341,0.341-0.171,0.853,0.509,1.534L384,332.288c0.683,0.683,1.195,1.026,1.536,1.026h1.024
			c1.027-1.026,1.539-1.707,1.539-2.048V214.529C388.096,213.845,387.584,213.163,386.56,212.48z"/>
	</g>
</g>
</svg>
