<?xml version="1.0" encoding="utf-8"?>
<!-- Generator: Adobe Illustrator 17.0.0, SVG Export Plug-In . SVG Version: 6.00 Build 0)  -->
<!DOCTYPE svg PUBLIC "-//W3C//DTD SVG 1.1//EN" "http://www.w3.org/Graphics/SVG/1.1/DTD/svg11.dtd">
<svg version="1.1" id="Capa_1" xmlns="http://www.w3.org/2000/svg" xmlns:xlink="http://www.w3.org/1999/xlink" x="0px" y="0px"
	 width="512px" height="512px" viewBox="0 0 512 512" enable-background="new 0 0 512 512" xml:space="preserve">
<g>
	<path fill="#FFFFFF" d="M256,0C114.613,0,0,114.598,0,256c0,141.417,114.613,256,256,256s256-114.583,256-256
		C512,114.598,397.387,0,256,0z M161.536,331.309c-41.592,0-75.309-33.747-75.309-75.324c0-41.592,33.717-75.294,75.309-75.294
		c41.577,0,75.309,33.702,75.309,75.294C236.845,297.562,203.113,331.309,161.536,331.309z M350.464,331.309
		c-41.592,0-75.294-33.747-75.294-75.324c0-41.592,33.702-75.294,75.294-75.294s75.294,33.702,75.294,75.294
		C425.758,297.562,392.056,331.309,350.464,331.309z"/>
</g>
</svg>
