<?xml version="1.0" encoding="utf-8"?>
<!-- Generator: Adobe Illustrator 17.0.0, SVG Export Plug-In . SVG Version: 6.00 Build 0)  -->
<!DOCTYPE svg PUBLIC "-//W3C//DTD SVG 1.1//EN" "http://www.w3.org/Graphics/SVG/1.1/DTD/svg11.dtd">
<svg version="1.1" id="Capa_1" xmlns="http://www.w3.org/2000/svg" xmlns:xlink="http://www.w3.org/1999/xlink" x="0px" y="0px"
	 width="512px" height="512px" viewBox="0 0 512 512" enable-background="new 0 0 512 512" xml:space="preserve">
<g>
	<path fill="#FFFFFF" d="M218.503,409.081c0,37.535-23.195,67.196-88.879,69.588c-38.492-21.893-70.745-53.475-93.454-91.432
		c11.845-29.248,48.846-51.523,91.159-51.057c12.011,0.125,23.205,2.056,33.372,5.349c27.953,19.432,50.5,31.576,56.161,53.724
		C217.919,399.736,218.503,404.357,218.503,409.081z M256,0C182.03,0,115.402,31.384,68.667,81.549
		c18.467-10.226,40.269-16.319,63.451-16.319c33.534,0,128.219,0,128.219,0L231.685,95.3h-33.656
		c23.749,13.606,36.376,41.624,36.376,72.506c0,28.346-15.708,51.19-37.89,68.529c-21.64,16.901-25.746,23.984-25.746,38.367
		c0,12.27,25.861,30.548,37.75,39.468c41.41,31.057,49.789,50.591,49.789,89.437c0,39.361-34.467,78.551-92.932,91.868
		c28.174,10.669,58.713,16.525,90.624,16.525c141.384,0,256-114.615,256-255.999S397.385,0,256,0z M384,192v64h-32v-64h-64v-32h64
		V96h32v64h64v32H384z M182.884,169.736c5.961,45.388-13.923,74.596-48.467,73.567c-34.563-1.041-67.403-32.746-73.37-78.12
		c-5.964-45.395,17.209-80.127,51.765-79.098C147.357,87.121,176.921,124.356,182.884,169.736z M110.442,321.034
		c-37.34,0-69.063,12.884-91.421,31.933C6.771,323.057,0,290.32,0,256c0-28.383,4.628-55.684,13.156-81.199
		c3.687,49.721,38.676,88.097,96.486,88.097c4.257,0,8.382-0.221,12.437-0.512c-3.975,7.616-6.811,16.096-6.811,24.991
		c0,14.986,8.244,23.536,18.434,33.448C126,320.825,118.566,321.034,110.442,321.034z"/>
</g>
</svg>
