<?xml version="1.0" encoding="utf-8"?>
<!-- Generator: Adobe Illustrator 17.0.0, SVG Export Plug-In . SVG Version: 6.00 Build 0)  -->
<!DOCTYPE svg PUBLIC "-//W3C//DTD SVG 1.1//EN" "http://www.w3.org/Graphics/SVG/1.1/DTD/svg11.dtd">
<svg version="1.1" id="Capa_1" xmlns="http://www.w3.org/2000/svg" xmlns:xlink="http://www.w3.org/1999/xlink" x="0px" y="0px"
	 width="90px" height="90px" viewBox="0 0 90 90" enable-background="new 0 0 90 90" xml:space="preserve">
<g>
	<path fill="#030104" d="M69.231,24.231c-1.907,0-3.462-1.554-3.462-3.462v-6.923c0-1.907,1.554-3.462,3.462-3.462h6.923
		c1.907,0,3.462,1.554,3.462,3.462v6.923c0,1.907-1.554,3.462-3.462,3.462H69.231z"/>
	<path fill="#030104" d="M45,31.805c-2.513,0-4.832,0.737-6.83,1.949c0.623-0.194,1.27-0.322,1.952-0.322
		c3.697,0,6.691,2.994,6.691,6.695c0,3.69-2.994,6.691-6.691,6.691s-6.691-2.998-6.691-6.691c0-0.689,0.135-1.336,0.325-1.956
		c-1.218,1.997-1.952,4.317-1.952,6.83c0,7.293,5.902,13.199,13.199,13.199c7.287,0,13.199-5.902,13.199-13.199
		S52.287,31.805,45,31.805z"/>
	<g>
		<path fill="#030104" d="M45,24.231c11.468,0,20.769,9.298,20.769,20.769S56.465,65.769,45,65.769
			c-11.468,0-20.769-9.298-20.769-20.769S33.532,24.231,45,24.231 M45,17.308c-15.269,0-27.692,12.423-27.692,27.692
			S29.731,72.692,45,72.692S72.692,60.269,72.692,45S60.269,17.308,45,17.308L45,17.308z"/>
	</g>
	<path fill="#030104" d="M73.125,0h-56.25C7.553,0,0,7.553,0,16.875v56.25C0,82.447,7.553,90,16.875,90h56.25
		C82.447,90,90,82.447,90,73.125v-56.25C90,7.553,82.447,0,73.125,0z M83.077,31.154H60.449c3.299,3.68,5.32,8.519,5.32,13.846
		c0,11.472-9.305,20.769-20.769,20.769c-11.468,0-20.769-9.298-20.769-20.769c0-5.327,2.022-10.17,5.32-13.846H6.923V16.875
		c0-5.487,4.465-9.952,9.952-9.952h56.25c5.49,0,9.952,4.465,9.952,9.952V31.154z"/>
</g>
</svg>
