<?xml version="1.0" encoding="utf-8"?>
<!-- Generator: Adobe Illustrator 17.0.0, SVG Export Plug-In . SVG Version: 6.00 Build 0)  -->
<!DOCTYPE svg PUBLIC "-//W3C//DTD SVG 1.1//EN" "http://www.w3.org/Graphics/SVG/1.1/DTD/svg11.dtd">
<svg version="1.1" id="Capa_1" xmlns="http://www.w3.org/2000/svg" xmlns:xlink="http://www.w3.org/1999/xlink" x="0px" y="0px"
	 width="512px" height="512px" viewBox="0 0 512 512" enable-background="new 0 0 512 512" xml:space="preserve">
<g>
	<g>
		<g>
			<path fill="#FFFFFF" d="M256,0C114.624,0,0,114.624,0,256s114.624,256,256,256s256-114.624,256-256C512,114.592,397.376,0,256,0z
				 M192,380h-64V155.999h64V380z M161.984,142.272c-16.576,0-29.984-13.44-29.984-30.016s13.44-30.016,29.984-30.016
				C178.56,82.271,192,95.711,192,112.256C192,128.832,178.56,142.272,161.984,142.272z M415.999,380h-64V241.504
				c0-16.224-4.64-27.584-24.576-27.584c-33.056,0-39.424,27.584-39.424,27.584V380h-64V155.999h64v21.408
				c9.152-7.007,31.999-21.376,64-21.376c20.736,0,64,12.416,64,87.424L415.999,380L415.999,380z"/>
		</g>
	</g>
</g>
</svg>
