<?xml version="1.0" encoding="utf-8"?>
<!-- Generator: Adobe Illustrator 17.0.0, SVG Export Plug-In . SVG Version: 6.00 Build 0)  -->
<!DOCTYPE svg PUBLIC "-//W3C//DTD SVG 1.1//EN" "http://www.w3.org/Graphics/SVG/1.1/DTD/svg11.dtd">
<svg version="1.1" id="Layer_1" xmlns="http://www.w3.org/2000/svg" xmlns:xlink="http://www.w3.org/1999/xlink" x="0px" y="0px"
	 width="60px" height="60px" viewBox="0 0 60 60" enable-background="new 0 0 60 60" xml:space="preserve">
<g id="Ellipse_2_copy">
	<g>
		<circle fill-rule="evenodd" clip-rule="evenodd" cx="30" cy="30" r="29.268"/>
	</g>
</g>
<g id="Forma_1_11_">
	<g>
		<path fill-rule="evenodd" clip-rule="evenodd" fill="#FFFFFF" d="M42.811,22.86v-9.521c0-1.316-1.145-2.38-2.562-2.38H19.751
			c-1.414,0-2.562,1.064-2.562,2.38v9.521c-4.246,0-7.687,3.196-7.687,7.141v7.14c0,3.943,3.441,7.14,7.687,7.14v2.38
			c0,1.316,1.148,2.38,2.562,2.38h20.497c1.417,0,2.562-1.064,2.562-2.38v-2.38c4.243,0,7.687-3.197,7.687-7.14V30
			C50.497,26.056,47.053,22.86,42.811,22.86z M19.751,13.339h20.497v9.521h-2.562v-7.14H22.313v7.14h-2.562V13.339z M40.248,27.62
			V30h-2.562v-2.38H40.248z M35.124,18.099v4.76H24.876v-4.76H35.124z M40.248,46.661H19.751v-9.52h20.497V46.661z M45.373,39.521
			h-2.562v-2.38c0-1.317-1.145-2.38-2.562-2.38H19.751c-1.414,0-2.562,1.064-2.562,2.38v2.38h-2.562v-2.38
			c0-2.628,2.296-4.76,5.124-4.76h20.497c2.829,0,5.124,2.132,5.124,4.76V39.521z M45.373,30h-2.562v-2.38h2.562V30z"/>
	</g>
</g>
</svg>
