<?xml version="1.0" encoding="utf-8"?>
<!-- Generator: Adobe Illustrator 17.0.0, SVG Export Plug-In . SVG Version: 6.00 Build 0)  -->
<!DOCTYPE svg PUBLIC "-//W3C//DTD SVG 1.1//EN" "http://www.w3.org/Graphics/SVG/1.1/DTD/svg11.dtd">
<svg version="1.1" id="Layer_1" xmlns="http://www.w3.org/2000/svg" xmlns:xlink="http://www.w3.org/1999/xlink" x="0px" y="0px"
	 width="60px" height="60px" viewBox="0 0 60 60" enable-background="new 0 0 60 60" xml:space="preserve">
<g id="Forma_1_copy">
	<g>
		<path fill-rule="evenodd" clip-rule="evenodd" d="M57.79,37.615c-2.061-2.328-5.898-2.53-6.243-2.542
			c-0.123-0.01-3.083-0.27-7.625-0.27c-1.423,0-2.857,0.026-4.272,0.078c-8.971-6.47-16.318-12.946-20.252-16.575
			c0.072-0.4,0.121-0.716,0.144-0.958c0.519-5.264-0.058-8.817-1.708-10.563c-1.081-1.14-2.668-1.519-4.323-1.085
			c-1.028,0.259-2.931,1.217-3.54,3.168c-0.673,2.156,0.409,4.773,3.249,7.808c0.045,0.046,1.009,1.017,2.761,2.662
			c-1.138,5.216-4.118,16.474-5.564,21.88c-3.396,1.744-6.225,3.844-8.415,6.255L1.857,47.63l-0.092,0.189
			c-0.226,0.456-1.304,2.82-0.494,4.719c0.37,0.864,1.062,1.495,2.003,1.826l0.252,0.065c0,0,0.228,0.047,0.628,0.047
			c1.752,0,6.077-0.884,8.396-9.1l0.562-2.082c8.097-3.783,18.218-5.003,25.554-5.343c3.774,2.69,7.529,5.161,11.167,7.349
			l0.119,0.066c0.177,0.087,1.772,0.844,3.641,0.846c2.67,0,4.62-1.575,5.346-4.32l0.037-0.188
			C59.179,40.134,58.768,38.721,57.79,37.615z M4.219,51.447c-0.016-0.019-0.024-0.036-0.032-0.057
			c-0.174-0.403,0.035-1.381,0.343-2.097c1.321-1.419,2.906-2.722,4.735-3.895C7.483,50.941,4.892,51.42,4.219,51.447z
			 M15.53,14.619c-2.736-2.927-2.695-4.379-2.548-4.867c0.242-0.816,1.332-1.125,1.341-1.128c0.549-0.143,0.882-0.115,1.179,0.198
			c0.671,0.709,1.247,2.847,1.02,6.77C15.877,14.967,15.53,14.619,15.53,14.619z M14.117,39.546l0.047-0.173l-0.006,0.002
			c1.37-5.158,3.345-12.708,4.482-17.559l0.041,0.037l0.004-0.022c3.675,3.326,9.311,8.192,16.058,13.252l-0.076,0.003l0.112,0.081
			C28.422,35.682,20.83,36.887,14.117,39.546z M55.86,41.238c-0.484,1.709-1.415,1.944-2.268,1.944
			c-0.991,0-1.944-0.397-2.162-0.492c-2.477-1.493-5.012-3.119-7.57-4.859h0.061c4.385,0,7.305,0.255,7.42,0.264
			c0.732,0.026,3.05,0.356,4.049,1.484C55.782,40.019,55.932,40.549,55.86,41.238z"/>
	</g>
</g>
</svg>
