<?xml version="1.0" encoding="utf-8"?>
<!-- Generator: Adobe Illustrator 17.0.0, SVG Export Plug-In . SVG Version: 6.00 Build 0)  -->
<!DOCTYPE svg PUBLIC "-//W3C//DTD SVG 1.1//EN" "http://www.w3.org/Graphics/SVG/1.1/DTD/svg11.dtd">
<svg version="1.1" id="Layer_1" xmlns="http://www.w3.org/2000/svg" xmlns:xlink="http://www.w3.org/1999/xlink" x="0px" y="0px"
	 width="90px" height="90px" viewBox="0 0 90 90" enable-background="new 0 0 90 90" xml:space="preserve">
<g>
	<path d="M87.012,81.949L66.305,61.242c5.133-6.258,8.227-14.273,8.227-23.01c0-20.039-16.26-36.299-36.299-36.299
		c-20.057,0-36.299,16.26-36.299,36.299s16.242,36.299,36.299,36.299c8.736,0,16.734-3.076,22.992-8.209l20.707,20.689
		c1.406,1.406,3.674,1.406,5.08,0C88.418,85.623,88.418,83.338,87.012,81.949z M38.232,67.307
		c-16.049,0-29.092-13.043-29.092-29.074S22.184,9.141,38.232,9.141c16.031,0,29.092,13.061,29.092,29.092
		S54.264,67.307,38.232,67.307z"/>
</g>
</svg>
