<?xml version="1.0" encoding="utf-8"?>
<!-- Generator: Adobe Illustrator 17.0.0, SVG Export Plug-In . SVG Version: 6.00 Build 0)  -->
<!DOCTYPE svg PUBLIC "-//W3C//DTD SVG 1.1//EN" "http://www.w3.org/Graphics/SVG/1.1/DTD/svg11.dtd">
<svg version="1.1" id="Capa_1" xmlns="http://www.w3.org/2000/svg" xmlns:xlink="http://www.w3.org/1999/xlink" x="0px" y="0px"
	 width="90px" height="90px" viewBox="0 0 90 90" enable-background="new 0 0 90 90" xml:space="preserve">
<g>
	<path id="Twitter__x28_alt_x29__2_" d="M79.804,41.561c5.032-0.427,8.46-2.719,9.825-5.839c-1.838,1.11-7.523,2.34-10.627,1.181
		c-0.165-0.735-0.334-1.436-0.51-2.059c-2.378-8.749-10.545-15.81-19.08-14.94c0.698-0.27,1.399-0.559,2.104-0.784
		c0.908-0.322,6.443-1.23,5.61-3.176c-0.765-1.706-7.519,1.286-8.771,1.684c1.673-0.622,4.462-1.688,4.747-3.619
		c-2.565,0.356-5.092,1.549-7.035,3.341c0.701-0.78,1.238-1.702,1.331-2.681c-6.844,4.357-10.83,13.185-14.07,21.728
		c-2.546-2.468-4.792-4.402-6.814-5.468c-5.67-3.06-12.446-6.221-23.104-10.177c-0.311,3.517,1.747,8.209,7.718,11.329
		c-1.305-0.176-3.649,0.214-5.539,0.656c0.758,4.043,3.27,7.346,10.073,8.962c-3.116,0.218-4.706,0.919-6.165,2.43
		c1.414,2.809,4.852,6.124,11.081,5.437c-6.904,2.985-2.813,8.512,2.809,7.661C23.809,67.136,8.689,66.424,0,58.106
		c22.665,30.908,71.906,18.277,79.268-11.471C84.746,46.699,87.99,44.73,90,42.581C86.835,43.117,82.253,42.57,79.804,41.561z"/>
</g>
</svg>
